# xmcd
#
# Track frame offsets: 
#        150
#        21702
#        41307
#        65652
#        81870
#        100187
#        132272
#        152027
#        183450
#        203975
#        217740
#        240730
#        267177
#        291410
#
# Disc length: 4243 seconds
#
# Revision: 8
# Processed by: cddbd v1.5.2PL0 Copyright (c) Steve Scherf et al.
# Submitted via: ExactAudioCopyFreeDBPlugin 1.0
#
DISCID=cd10910e
DTITLE=Son Seals - Lettin' Go
DYEAR=2000
DGENRE=Blues
TTITLE0=Bad Blood
TTITLE1=Let It Go
TTITLE2=Give The Devil His Due
TTITLE3=Doc's Blues
TTITLE4=Hair On A Frog
TTITLE5=Jelly, Jelly
TTITLE6=Osceola Rock
TTITLE7=Dear Son
TTITLE8=I Got Some Of My Money
TTITLE9=Rockin' And Rollin Tonight
TTITLE10=Bad Luck Child
TTITLE11=Blues Holy Ghost
TTITLE12=Love Had A Breakdown
TTITLE13=Funky Bitch
EXTD=
EXTT0=
EXTT1=
EXTT2=
EXTT3=
EXTT4=
EXTT5=
EXTT6=
EXTT7=
EXTT8=
EXTT9=
EXTT10=
EXTT11=
EXTT12=
EXTT13=
PLAYORDER=
